<svg xmlns="http://www.w3.org/2000/svg" viewBox="0 0 372.8 70.3"><title id="title">SVG Logo Treinaweb</title><style type="text/css"><![CDATA[ #svg-tw {margin: 0 auto;width: 100%;padding: 1rem;-webkit-box-sizing: border-box;-moz-box-sizing: border-box;box-sizing: border-box;}.st0 {fill-rule: evenodd;clip-rule: evenodd;fill: #34495E;}.st1 {fill-rule: evenodd;clip-rule: evenodd;fill: #FDFEFE;}.st2 {fill-rule: evenodd;clip-rule: evenodd;fill: #2980B9;}]]></style><path class="st2 blue-end" d="M319 .3c.5-.4 1-.3 1.3-.3h51.1c1 0 1.4.2 1.4 1.3V69c0 1-.2 1.3-1.3 1.3h-65.1c-.4 0-.8.1-1.3-.2 1.6-2.1 3.3-4.2 4.8-6.4.9-1.3 1.8-1.6 3.4-1.6 16.6.1 33.3 0 49.9.1 1.1 0 1.4-.2 1.4-1.3V9.8c0-1.1-.2-1.4-1.3-1.4h-34.4c-.8 0-1.4-.2-2-.8-2.2-2.2-4.5-4.3-6.8-6.4-.4-.4-.8-.6-1.1-.9z"/><path class="st0" d="M316.7 2c2.9 2.7 5.6 5.3 8.4 7.8.3.3.3.7.3 1.1 0 3 .1 5.9 0 8.9 0 1.2.4 1.4 1.5 1.4 5.3-.1 10.6 0 15.8 0 2.3 0 4.6.1 6.9.6 4.4.9 7.2 3.4 7.9 7.9.7 4.8.8 9.6 0 14.3-.8 4.7-3.5 7.1-8.2 8-1.7.3-3.4.5-5.1.5-5.7-.1-11.4.3-17.1-.2-1.2-.1-2.4-.4-3.5-.7-4-1.2-5.9-4.2-6.5-8.1-.2-1.3-.3-2.6-.3-3.9v-36c-.1-.6-.1-1-.1-1.6zm18.7 26.7c0-.1 0-.1 0 0-3-.1-6.1-.1-9.1-.1-.7 0-1 .1-1 .9.1 1.2.1 2.3 0 3.5 0 .8.2 1 1 1h8.5c1.1 0 2.7-.5 3.3.2.6.7.1 2.2.2 3.4.1.8-.2 1.1-1 1.1-3.7-.1-7.4 0-11 0-.3 0-.8-.2-1 .4-.7 2.8 1.1 5.8 4 6 5.3.4 10.5.4 15.8 0 2.3-.2 3.5-1.3 3.8-3.6.4-3.2.4-6.4-.1-9.5-.2-1.5-1.2-2.5-2.7-2.9-.7-.2-1.5-.3-2.3-.3-2.7-.1-5.6-.1-8.4-.1z"/><path class="st2" d="M223.1 42.1c3-6.4 6-12.5 8.9-18.6.9-1.9 2.2-3.1 4.5-3.2 2.6-.1 4.1 1.2 5.1 3.4 2.5 5.7 5.1 11.3 7.7 17l.6 1.2c.5-.2.6-.8.7-1.2 2.8-6.1 5.5-12.2 8.2-18.3.4-1 1-1.3 2-1.3 2 .1 4.1.1 6.1 0 1 0 1 .2.6 1-3.9 8.6-7.8 17.3-11.7 26-.3.7-.7 1.5-1 2.2-.9 2-2.5 3.1-4.7 3.1s-3.8-1.2-4.7-3.1c-2-4.3-4-8.7-6-13-.9-2-1.8-4-2.8-6.1-1 2.1-2 4.1-2.9 6-2.1 4.4-4.2 8.8-6.3 13.1-1.2 2.4-3.1 3.4-5.5 3.1-2-.2-3.2-1.4-4-3.2l-9.3-21.6c-.9-2.2-1.8-4.3-2.8-6.5-.4-.9-.2-1 .7-1h6.8c.7 0 1 .2 1.3.9l8.1 18.9c0 .4.2.7.4 1.2z"/><path class="st0" d="M76.4 40h-15c-.8 0-1.1.2-1.1 1.1 0 3.9.9 4.9 4.9 4.9h26c1.1 0 1.3.3 1.3 1.3-.1 1.5 0 3 0 4.4 0 .6-.2.8-.8.8-9.6 0-19.1 0-28.7-.1-1.4 0-2.9-.3-4.2-.7-4.2-1.2-6.6-4.1-7-8.5-.4-4.4-.4-8.9 0-13.3.4-5 3.3-7.7 8.5-8.5 1.7-.2 3.3-.3 5-.3 5.8 0 11.7 0 17.5.1 1.1 0 2.1.2 3.2.4 4.4 1.1 6.3 3.5 6.4 8V39c0 .9-.3 1-1.1 1H76.4zm-6.8-12.1c-2 0-4.1 0-6.1.1s-3 1.1-3.2 3.1c-.1.8 0 1.7-.1 2.5s.2.9 1 .9h21.6c.7 0 1-.2.9-.9-.1-1.2 0-2.3 0-3.5 0-1.3-.6-1.9-1.8-2.1-.5-.1-1.1-.1-1.7-.1"/><path class="st2" d="M294.6 40h-15c-.9 0-1.2.2-1.2 1.1 0 3.8 1 4.8 4.8 4.8h9.5c.8 0 1.1.1 1.1 1-.1 1.6 0 3.1 0 4.7 0 .6-.1.9-.8.9-4.5-.1-9.1.3-13.7-.3-6.2-.7-9.4-4.1-9.6-10.4-.1-4-.4-8.1.2-12.1.7-5.2 3.3-7.6 8.5-8.3 2.1-.3 4.1-.4 6.2-.4 5.4 0 10.8-.1 16.2.1 1.4.1 2.9.3 4.2.7 3.5 1.1 5.3 3.3 5.4 6.9.1 3.5 0 7 .1 10.4 0 .8-.5.7-1 .7-4.8.2-9.8.2-14.9.2zm-4.4-5.5h10.9c.7 0 1-.2 1-.9-.1-.8 0-1.6 0-2.4 0-2.6-.6-3.3-3.2-3.3h-10.5c-2.2 0-4.3 0-6.5.1-2 .1-2.9 1-3.2 2.9-.1.8 0 1.7-.1 2.5s.2 1.1 1 1.1c3.5-.1 7 0 10.6 0z"/><path class="st0" d="M180.6 52.5c-4.2-.2-8.5.3-12.8-.3-.8-.1-1.7-.3-2.4-.6-2.8-.9-4.5-2.8-4.8-5.7-.2-2.2-.3-4.5 0-6.7.5-3.6 2.7-5.5 6.7-6 1.7-.2 3.3-.3 5-.3h21c1 0 1.3-.3 1.2-1.3-.4-3.1-1.2-4.1-4.3-4.3-2.9-.2-5.8-.1-8.6-.1-.7 0-1-.1-1-.9.1-1.5 0-3 0-4.6 0-.4 0-.7.5-.7 4.5.1 9-.4 13.5.5 5.6 1.1 8.1 4 8.4 9.9.2 3.9.3 7.8-.1 11.6-.5 5.8-3.3 8.5-9.1 9.1-4.3.6-8.7.3-13.2.4zm2.3-14.1H172c-2 .1-2.8.9-2.9 2.9v2.3c0 2 .8 2.9 2.8 3 2.8.1 5.5.1 8.3.1 3.4 0 6.7 0 10.1-.1 2.6-.1 3.9-1.3 4.1-3.9.1-1.1.1-2.2.2-3.2.1-.9-.2-1.1-1.1-1.1h-10.6zM114 41c.1-3.1-.3-6.8.3-10.5.9-5.6 3.7-8.2 9.3-8.9 1.9-.3 3.9-.4 5.9-.3 5.1.1 10.2-.3 15.3.3 5.3.6 8.3 3.1 9.3 7.9.3 1.3.4 2.6.4 3.9 0 6.1 0 12.2.1 18.2 0 .8-.2 1-1 1-2.2-.1-4.5-.1-6.7 0-.9 0-1-.3-1-1.1v-17c-.1-4.3-1.5-5.7-5.8-5.9-4-.1-7.9-.1-11.9 0-.5 0-1 0-1.4.1-2.7.4-3.9 1.7-4.1 4.5-.1 1.1-.1 2.2-.1 3.4v14.6c0 1.1-.3 1.3-1.3 1.3-2.1-.1-4.2-.1-6.4 0-.8 0-1-.2-1-1 .1-3.3.1-6.6.1-10.5zM4.5 40.3V29.1c0-.7-.1-1-.9-1-1.1.2-2.6.5-3.2-.1-.7-.7-.2-2.2-.2-3.3v-2.8c0-.6.1-.9.8-.8h2.5c.8.1 1.1-.2 1.1-1-.1-2.3 0-4.6 0-6.8 0-.7.2-1 .9-.9h7.1c.7 0 .9.2.9.9v7.1c0 .7.2.9.9.9h8c.8 0 1 .2 1 1-.1 1.7-.1 3.4 0 5.2 0 .9-.3 1-1 1h-7.9c-.8 0-1 .2-1 1v22.1c0 1-.2 1.3-1.2 1.3-2.2-.1-4.4-.1-6.6 0-.8 0-1.1-.2-1.1-1.1-.1-4-.1-7.8-.1-11.5zM27.3 41.7c.1-2.9-.2-6.5.2-10 .6-6 3.8-9.3 9.7-10.1 3.2-.4 6.5-.3 9.7-.4.5 0 .8.1.8.7v5.6c0 .7-.3.8-.9.7h-5.4c-3.7 0-5.1 1.3-5.4 4.9-.2 2.2-.1 4.4-.1 6.6v11.8c0 .7-.1 1.1-1 1-2.3-.1-4.6 0-6.8 0-.7 0-.9-.2-.9-.9.1-3.1.1-6.2.1-9.9zM107.4 37.2v14.2c0 .8-.1 1.2-1.1 1.2-2.3-.1-4.6-.1-6.8 0-.7 0-1-.2-1-.9V23c0-.7.2-1 .9-1 2.3.1 4.6.1 7 0 .8 0 1 .2 1 1v14.2z"/><path class="st0 e-end" d="M304.5 46h5.4c.6 0 .8.2.8.8v5c0 .6-.1.8-.7.8h-11c-.6 0-.8-.1-.8-.7 0-1.7.1-3.4 0-5 0-.8.3-.8.9-.8 1.8-.1 3.6-.1 5.4-.1z"/><path class="st2 dot" d="M103 19.4c-4.2 0-4.4-.1-4.4-4.4 0-4 .3-4.3 4.3-4.3 1 0 1.9-.1 2.9.2 1 .2 1.6.9 1.7 1.9.1 1.5.1 3 0 4.4-.1 1.2-.8 2-2 2.1-.9.1-1.7.1-2.5.1z"/><path class="st0" d="M235.9 70.2c-1.7.2-3.1.2-4.4-.8-.4-.3-.8-.5-1.2-.7-.6-.3-1.3-1.2-1.8-.9-.5.2-.2 1.2-.2 1.9s-.4.7-.8.7-1 .2-1-.6V63c0-.5.2-.6.6-.6 2.3 0 4.5 0 6.8.1 1.6.1 2.1.8 2.1 2.5 0 1.8-.5 2.5-2 2.7-.7.1-1.4.1-2.5.1 1.6.7 2.9 1.5 4.4 2.4zm-4.9-4h2.2c.9 0 1.1-.5 1.1-1.2 0-.8-.2-1.2-1.1-1.2h-4.3c-.3 0-.5 0-.6.4-.4 1.5 0 2.1 1.6 2.1.3-.1.7-.1 1.1-.1zM270.2 70.2c-.9 0-1.8.1-2.6 0-1.1-.1-1.8-.7-1.9-1.8-.1-1.5-.2-2.9 0-4.4.1-1 .8-1.6 1.8-1.7 1.8-.2 3.7-.2 5.5 0 1 .1 1.6.7 1.8 1.8.1 1.4.2 2.8 0 4.2-.1 1.3-.7 1.8-2 1.9h-.4c-.7.1-1.4.1-2.2 0zm0-1.4h.8c2 0 2 0 2-2 0-3.3.3-3-3.1-3-2.5 0-2.5 0-2.5 2.3 0 2.9-.1 2.7 2.8 2.7zM289.1 70.3h-2.9c-.6 0-.8-.2-.8-.8 0-.6.3-.7.8-.7h5.1c.6 0 1.1-.1 1.1-.9s-.5-1-1.2-1h-4c-1.4 0-1.9-.6-1.9-2-.1-1.7.4-2.5 1.7-2.6.8-.1 1.6 0 2.4-.1.6 0 .7.3.7.8 0 .6-.2.8-.8.7h-1.4c-.6 0-1 .2-1 .9s.3.9 1 .9h3.7c.8 0 1.8.1 2.1 1 .4 1 .4 2-.1 3-.3.6-.9.7-1.5.8h-3zM250.2 70.3h-3c-.6 0-.8-.2-.8-.8 0-.6.2-.8.8-.7h5.2c.6 0 1.1 0 1.1-.8s-.4-1.1-1.1-1h-4c-1.4 0-1.9-.6-2-2-.1-1.8.4-2.5 1.8-2.7.7-.1 1.4 0 2.2-.1.6 0 .8.2.8.8 0 .6-.3.8-.8.7h-1.6c-.6 0-.8.3-.8.9 0 .6.3.9.9.9h3.7c1.9 0 2.4.6 2.4 2.5 0 1.8-.5 2.3-2.4 2.3h-2.4zM206.5 65.4v-2.3c0-.7 0-1 .9-1s1 .3 1 1.1v4.2c0 .9.4 1.4 1.4 1.4h2.8c1.1 0 1.5-.4 1.5-1.5V63c0-.6.2-.9.8-.8.6 0 1 0 1 .8-.1 1.7 0 3.4 0 5 0 1.5-.7 2.1-2.1 2.2-1.6.1-3.2.1-4.8 0-1.5-.1-2.1-.8-2.2-2.3v-.2c-.3-.7-.3-1.5-.3-2.3zM192.4 70.2h-2.9c-1.5-.1-2.1-.8-2.2-2.2-.1-1.2-.1-2.4 0-3.6.1-1.4.6-2.1 2-2.2 2-.1 4-.1 6-.1.7 0 .6.5.6.9.1.5-.1.7-.7.7h-4.7c-1.1 0-1.6.4-1.6 1.5 0 4-.3 3.5 3.4 3.5h2.8c.5 0 .8.1.8.7s-.2.8-.8.8c-.8 0-1.7.1-2.7 0 0 .1 0 .1 0 0z"/><path class="st1" d="M270.2 68.8c-3 0-2.8.2-2.8-2.7 0-2.3 0-2.3 2.5-2.3 3.5 0 3.1-.3 3.1 3 0 2 0 2-2 2h-.8z"/></svg>